<?xml version="1.0" encoding="utf-8"?>
<!-- Generator: Adobe Illustrator 20.1.0, SVG Export Plug-In . SVG Version: 6.00 Build 0)  -->
<svg version="1.1" id="Layer_1" xmlns="http://www.w3.org/2000/svg" xmlns:xlink="http://www.w3.org/1999/xlink" x="0px" y="0px"
	 viewBox="0 0 425.2 170.1" style="enable-background:new 0 0 425.2 170.1;" xml:space="preserve">
<style type="text/css">
	.st0{fill:#FFFFFF;}
	.st1{fill:url(#SVGID_1_);}
	.st2{fill:url(#SVGID_2_);}
	.st3{fill:#82BC00;}
</style>
<g>
	<path class="st0" d="M227.9,99.2h-35.3l-6.6,16.1h-18.5l35-78.3H218l35.1,78.3h-18.7L227.9,99.2z M223.4,88.2l-13.1-32.4
		l-13.1,32.4H223.4z"/>
	<path class="st0" d="M326.2,102.4v13H263V37h61.9v13h-44.8v19.5h38.3v12.1h-38.3v20.8H326.2z"/>
	<path class="st0" d="M407.3,93.1c0,15-15.4,23.3-36,23.3c-21.7,0-34.9-9.6-36.2-25.8h17.8c1.4,7.3,6.2,13.4,18.5,13.4
		c11.5,0,18-4.9,18-11c0-6.7-5-9.3-14.2-10.9l-12.2-2c-15.1-2.5-26-8.1-26-21.9C337,45.1,349.6,36,370,36c20.1,0,33.2,8.2,34.9,23.2
		h-17.8c-1.2-6.8-6.7-10.7-17.1-10.7c-10.9,0-15.3,5.7-15.3,10.2c0,4.4,2.6,8.2,11.1,9.6l13.5,2.2C398.6,73.9,407.3,80,407.3,93.1z"
		/>
</g>
<path class="st0" d="M160.8,97.2c-0.6-9.7-4.7-23-12.8-29.4c1.3,1.1,2.2,4.3,2.9,5.8c1.9,4.5,3.4,9.2,4.1,14
	c4.5,32.5-38.7,36.1-60.8,29.9C65.3,109.4,33,91.9,27,59.6C23.3,39.6,37.4,29.8,55,25c-4.2,1.2-8.6,1.3-12.9,2.5
	c-4.2,1.1-8.2,2.9-11.9,5.1c-2.7,1.7-5.3,3.6-7.4,6C6.3,56.8,23.5,83.7,37.3,98.1c11.4,11.8,25.7,20.4,41.1,26.1
	c12.4,4.6,25.2,7.8,38.4,7.6c8.4-0.2,17.1-1.2,24.9-4.4c8.8-3.6,15.9-10.1,18.1-19.6C160.8,104.3,161,100.7,160.8,97.2z"/>
<path class="st0" d="M58.4,96.1l-12-58.4L67,37.1l9.4,70c0,0-9.8-4.3-17.6-9.7C58.7,97.5,58.6,97,58.4,96.1z"/>
<linearGradient id="SVGID_1_" gradientUnits="userSpaceOnUse" x1="80.6383" y1="15.0454" x2="80.6383" y2="114.053">
	<stop  offset="0" style="stop-color:#82BC00;stop-opacity:0.8"/>
	<stop  offset="0.9975" style="stop-color:#82BC00"/>
</linearGradient>
<path class="st1" d="M94.3,114.1c-7.1-2.2-16.1-6.3-16.1-6.3L67,15l24.7,3.4L94.3,114.1z"/>
<linearGradient id="SVGID_2_" gradientUnits="userSpaceOnUse" x1="129.1747" y1="46.1433" x2="129.1747" y2="116.5528">
	<stop  offset="0" style="stop-color:#82BC00;stop-opacity:0.8"/>
	<stop  offset="0.9975" style="stop-color:#82BC00"/>
</linearGradient>
<path class="st2" d="M113.4,116.6c0,0,8.2-0.2,13.9-1.6l17.6-67.4l-28-1.4L113.4,116.6z"/>
<path class="st0" d="M96.2,114.9l-2.4-89l22.1-3.1l-5,93.7C111,116.6,103.3,117.1,96.2,114.9z"/>
<g>
	<path class="st3" d="M175.3,134.6c-2.4,0-3.8,1.1-3.8,2.6c0,1.4,0.8,2.1,2.9,2.6l2.7,0.6c3.1,0.7,5,1.4,5,4.4
		c0,3.4-3.2,4.8-6.7,4.8c-3.7,0-6.5-1.6-6.9-5.1h2.4c0.5,2.3,2.3,3.1,4.5,3.1c2.3,0,4.1-0.9,4.1-2.8c0-1.7-1.1-2.1-3-2.6l-2.9-0.7
		c-3.1-0.7-4.6-2.1-4.6-4.4c0-2.8,2.4-4.6,6.2-4.6c3.5,0,5.8,1.5,6.5,4.4h-2.4C178.8,135.3,177.3,134.6,175.3,134.6z"/>
	<path class="st3" d="M201.2,142.1h-12.7c0.3,4,2.4,5.7,5.4,5.7c2.1,0,3.3-0.5,4.3-2h2.4c-1.3,2.8-3.5,4-6.9,4
		c-4.2,0-7.8-2.7-7.8-8.6c0-5.9,3.8-8.6,7.8-8.6c4,0,7.5,2.7,7.5,8.7C201.2,141.5,201.2,141.8,201.2,142.1z M198.8,140.3
		c-0.1-3.7-2.1-5.7-5-5.7c-2.8,0-5,1.8-5.3,5.7H198.8z"/>
	<path class="st3" d="M220.5,139.4v10.1H218v-10c0-3.5-1.7-4.7-4.2-4.7c-3.2,0-4.8,2.8-5.1,4.3v10.4h-2.6v-16.7h2.6v3.9
		c0.4-1.2,2.3-4.1,6-4.1C217.9,132.6,220.5,134.3,220.5,139.4z"/>
	<path class="st3" d="M232,134.6c-2.4,0-3.8,1.1-3.8,2.6c0,1.4,0.8,2.1,2.9,2.6l2.7,0.6c3.1,0.7,5,1.4,5,4.4c0,3.4-3.2,4.8-6.7,4.8
		c-3.7,0-6.5-1.6-6.9-5.1h2.4c0.5,2.3,2.3,3.1,4.5,3.1c2.3,0,4.1-0.9,4.1-2.8c0-1.7-1.1-2.1-3-2.6l-2.9-0.7
		c-3.1-0.7-4.6-2.1-4.6-4.4c0-2.8,2.4-4.6,6.2-4.6c3.5,0,5.8,1.5,6.5,4.4h-2.4C235.5,135.3,234.1,134.6,232,134.6z"/>
	<path class="st3" d="M246.1,126.7v2.4h-2.6v-2.4H246.1z M246.1,132.8v16.7h-2.6v-16.7H246.1z"/>
	<path class="st3" d="M266.2,139.4v10.1h-2.6v-10c0-3.5-1.7-4.7-4.2-4.7c-3.2,0-4.8,2.8-5.1,4.3v10.4h-2.6v-16.7h2.6v3.9
		c0.4-1.2,2.3-4.1,6-4.1C263.6,132.6,266.2,134.3,266.2,139.4z"/>
	<path class="st3" d="M286.6,132.7v16.7c0,5.8-4.3,7.2-7.7,7.2c-3.2,0-5.8-1.2-6.9-3.2l1.7-1.1c1,1.3,2.7,2.1,5,2.1
		c3.3,0,5.3-1.4,5.3-5v-3.3c-0.8,1.9-2.7,3.6-5.6,3.6c-3.6,0-7.4-2.6-7.4-8.6c0-5.9,3.9-8.5,7.4-8.5c2.5,0,4.6,1.3,5.6,3.3v-3.2
		H286.6z M284.1,141.1c0-4.5-2.5-6.4-5.3-6.4c-2.8,0-5.3,2-5.3,6.4c0,4.4,2.5,6.4,5.3,6.4C281.6,147.5,284.1,145.5,284.1,141.1z"/>
	<path class="st3" d="M308.7,134.6c-2.4,0-3.8,1.1-3.8,2.6c0,1.4,0.8,2.1,2.9,2.6l2.7,0.6c3.1,0.7,5,1.4,5,4.4
		c0,3.4-3.2,4.8-6.7,4.8c-3.7,0-6.5-1.6-6.9-5.1h2.4c0.5,2.3,2.3,3.1,4.5,3.1c2.3,0,4.1-0.9,4.1-2.8c0-1.7-1.1-2.1-3-2.6l-2.9-0.7
		c-3.1-0.7-4.6-2.1-4.6-4.4c0-2.8,2.4-4.6,6.2-4.6c3.5,0,5.8,1.5,6.5,4.4h-2.4C312.3,135.3,310.8,134.6,308.7,134.6z"/>
	<path class="st3" d="M334.7,147.8v1.6c-0.4,0.2-0.6,0.2-1.1,0.2c-1.6,0-2.5-0.6-2.5-2.4V146c-0.5,0.9-2.3,3.7-6.4,3.7
		c-3.1,0-5.5-1.7-5.5-5c0-3,2-4.3,5.9-4.9c2-0.3,4.6-0.6,5.7-1.2v-0.2c0-2.9-1.4-3.8-4.1-3.8c-2.5,0-3.8,0.9-4.1,2.5h-2.4
		c0.4-3,2.7-4.5,6.6-4.5c4.4,0,6.6,1.7,6.6,6.4v7.6C333.5,147.5,333.8,147.9,334.7,147.8z M330.9,140.2c-1,0.5-3.2,0.9-5.4,1.3
		c-2.7,0.5-3.6,1.4-3.6,3.2c0,1.9,1.3,3.1,3.5,3.1c3.4,0,5.1-2.8,5.6-3.6V140.2z"/>
	<path class="st3" d="M342.3,131.1v1.7h4.1v2.1h-4.1v14.7h-2.6v-14.7h-2.3v-2.1h2.3V131c0-4,2.3-4.6,4.4-4.6c0.8,0,1.8,0.1,2.4,0.4
		v1.9c-0.5-0.1-1.3-0.2-1.9-0.2C343,128.5,342.3,129.2,342.3,131.1z"/>
	<path class="st3" d="M364.7,142.1H352c0.3,4,2.4,5.7,5.4,5.7c2.1,0,3.3-0.5,4.3-2h2.4c-1.3,2.8-3.5,4-6.9,4c-4.2,0-7.8-2.7-7.8-8.6
		c0-5.9,3.8-8.6,7.8-8.6c4,0,7.5,2.7,7.5,8.7C364.8,141.5,364.8,141.8,364.7,142.1z M362.3,140.3c-0.1-3.7-2.1-5.7-5-5.7
		c-2.8,0-5,1.8-5.3,5.7H362.3z"/>
	<path class="st3" d="M376.5,147.3v2c-0.7,0.3-1.6,0.4-2.6,0.4c-1.9,0-3.5-0.6-3.5-3.2v-11.6h-2.6v-2.1h2.6v-4.2h2.6v4.2h3.2v2.1
		H373v11.4c0,0.9,0.4,1.4,1.7,1.4C375.3,147.6,375.8,147.5,376.5,147.3z"/>
	<path class="st3" d="M396,132.8l-7.2,17.9c-1.6,3.9-3.6,5.2-6.8,4.9v-2.3c2.4,0.3,3.7-0.8,4.4-2.7c0.4-0.9,0.4-1.3,0.1-1.9
		l-6.4-15.9h2.7l5.2,13.8l5.3-13.8H396z"/>
</g>
</svg>
