<svg xmlns="http://www.w3.org/2000/svg" viewBox="0 0 578.98 136.15"><g id="Layer_2" data-name="Layer 2"><g id="Layer_1-2" data-name="Layer 1"><path d="M335.93,120.62c0,1.07.33,1.69,1,1.69a2.63,2.63,0,0,0,1.4-.54L518.75,4.59a17.34,17.34,0,0,1,10.4-3.16h39.66C574.91,1.43,579,5.5,579,11.6V87.32c0,9.15-2,14.43-10.16,19.32l-48.11,28.91a3.29,3.29,0,0,1-1.61.6c-.59,0-1.12-.45-1.12-2.1V45.66c0-1-.32-1.7-1-1.7a2.75,2.75,0,0,0-1.39.53L383.68,130.17a17.31,17.31,0,0,1-10.12,3.12H286.1c-6.1,0-10.17-4.07-10.17-10.17V14c0-.8-.35-1.54-1-1.54a2.82,2.82,0,0,0-1.41.53l-87,52.26c-.87.53-1.11,1-1.11,1.38s.15.72.76,1.34l62.15,62.14c.83.83,1.4,1.46,1.4,2.11s-.92,1.07-2,1.07H191.52c-4.4,0-7.8-.67-10.17-3L143.67,92.56a1.61,1.61,0,0,0-1.09-.6,2.5,2.5,0,0,0-1.17.41l-63,37.88c-3.81,2.29-6.45,3-10.18,3h-58C4.07,133.29,0,129.22,0,123.12V48.79C0,39.63,2.05,34.38,10.17,29.5L58.57.42A2.5,2.5,0,0,1,59.88,0C60.62,0,61,.77,61,2.44v99.38c0,1.05.28,1.54,1,1.54a3,3,0,0,0,1.44-.61L227,4.48a17.7,17.7,0,0,1,10.8-3.05h88c6.1,0,10.17,4.07,10.17,10.17Z" fill="#05141f"/></g></g></svg>